<?xml version="1.0" encoding="iso-8859-1"?>
<!-- Uploaded to: SVG Repo, www.svgrepo.com, Generator: SVG Repo Mixer Tools -->
<svg fill="#FFFFFF" height="200" width="200" version="1.1" id="Capa_1" xmlns="http://www.w3.org/2000/svg" xmlns:xlink="http://www.w3.org/1999/xlink"
	 viewBox="0 0 612 612" xml:space="preserve">
<g>
	<path d="M403.432,428.079v93.406c0,8.338-6.783,15.118-15.118,15.118h-165.68c-8.335,0-15.118-6.781-15.118-15.118v-93.406H403.432
		z M556.434,396.712v121.241c0,22.281-18.128,40.406-40.406,40.406H505.09C496.42,589.265,468.012,612,434.376,612H176.571
		c-33.639,0-62.047-22.735-70.717-53.641h-9.881c-22.281,0-40.406-18.128-40.406-40.406V396.712
		c0-22.281,18.128-40.406,40.406-40.406h7.147v-107.74c-13.955-7.028-23.572-21.453-23.572-38.115V108.588
		c0-23.539,19.148-42.687,42.687-42.687h23.082V58.57c0-18.705,15.217-33.926,33.926-33.926h56.1
		c18.708,0,33.926,15.22,33.926,33.926v7.331h67.865V33.926C337.124,15.22,352.341,0,371.049,0h56.1
		c18.708,0,33.926,15.22,33.926,33.926v31.975h27.64c23.539,0,42.687,19.148,42.687,42.687V210.45
		c0,16.664-9.62,31.09-23.574,38.115v107.738h8.2C538.306,356.302,556.434,374.43,556.434,396.712z M103.116,383.81H95.97
		c-7.114,0-12.898,5.788-12.898,12.898V517.95c0,7.114,5.788,12.898,12.898,12.898h7.147V383.81z M293.507,262.423
		c0,5.711,4.646,10.357,10.359,10.357h3.213c5.711,0,10.359-4.646,10.359-10.357v-23.038v-23.038
		c0-5.711-4.646-10.357-10.359-10.357h-3.213c-5.711,0-10.359,4.646-10.359,10.357v23.038V262.423z M241.751,65.904v-7.331
		c0-3.54-2.88-6.418-6.418-6.418h-56.097c-3.538,0-6.418,2.877-6.418,6.418v7.331H241.751z M430.94,365.309
		c0-25.954-21.115-47.066-47.066-47.066H227.067c-25.954,0-47.063,21.112-47.063,47.066v156.176
		c0,23.503,19.121,42.626,42.626,42.626h165.68c23.506,0,42.626-19.124,42.626-42.626V365.309H430.94z M433.567,33.926
		c0-3.54-2.88-6.418-6.418-6.418h-56.1c-3.538,0-6.418,2.88-6.418,6.418v31.975h68.935L433.567,33.926L433.567,33.926z
		 M528.926,396.712c0-7.114-5.788-12.898-12.898-12.898h-7.983v147.041h7.983c7.114,0,12.898-5.788,12.898-12.898V396.712z
		 M403.432,400.571v-35.262c0-10.783-8.772-19.558-19.558-19.558H227.067c-10.783,0-19.555,8.772-19.555,19.558v35.262H403.432z"/>
</g>
</svg>