<svg xmlns="http://www.w3.org/2000/svg" viewBox="0 0 841.9 595.3">
    <defs>
        <linearGradient id="gradient1">
            <stop offset="0%" stop-color="#FF5F6D" />
            <stop offset="100%" stop-color="#FFC371" />
        </linearGradient>
        <linearGradient id="gradient2">
            <stop offset="0%" stop-color="#1CB5E0" />
            <stop offset="100%" stop-color="#000046" />
        </linearGradient>
    </defs>
    <g transform="translate(420, 297.65)">
        <animateTransform attributeName="transform" attributeType="XML" type="rotate" from="0 0 0" to="360 0 0" dur="3s" repeatCount="indefinite"/>
        <path fill="url(#gradient1)" d="M 0 -100 L 86.6 -50 L 86.6 50 L 0 100 L -86.6 50 L -86.6 -50 Z" />
        <path fill="url(#gradient2)" d="M 0 -100 L 86.6 -50 L 86.6 50 L 0 100 L -86.6 50 L -86.6 -50 Z" transform="rotate(60)" />
        <path fill="url(#gradient1)" d="M 0 -100 L 86.6 -50 L 86.6 50 L 0 100 L -86.6 50 L -86.6 -50 Z" transform="rotate(120)" />
        <path fill="url(#gradient2)" d="M 0 -100 L 86.6 -50 L 86.6 50 L 0 100 L -86.6 50 L -86.6 -50 Z" transform="rotate(180)" />
        <path fill="url(#gradient1)" d="M 0 -100 L 86.6 -50 L 86.6 50 L 0 100 L -86.6 50 L -86.6 -50 Z" transform="rotate(240)" />
        <path fill="url(#gradient2)" d="M 0 -100 L 86.6 -50 L 86.6 50 L 0 100 L -86.6 50 L -86.6 -50 Z" transform="rotate(300)" />
    </g>
</svg>
