<?xml version="1.0" encoding="utf-8"?>
<!-- Uploaded to: SVG Repo, www.svgrepo.com, Generator: SVG Repo Mixer Tools -->
<svg version="1.1" id="_x32_" xmlns="http://www.w3.org/2000/svg" xmlns:xlink="http://www.w3.org/1999/xlink" 
	 width="400" height="400" viewBox="0 0 512 512"  xml:space="preserve">
<g>
	<path fill="#FFFFFF" class="st0" d="M115.891,314.563c-20.078,0-36.375,16.281-36.375,36.375c0,20.063,16.297,36.375,36.375,36.375
		S152.25,371,152.25,350.938C152.25,330.844,135.969,314.563,115.891,314.563z M115.891,367.188c-8.969,0-16.266-7.281-16.266-16.25
		s7.297-16.266,16.266-16.266c8.953,0,16.25,7.297,16.25,16.266S124.844,367.188,115.891,367.188z"/>
	<path fill="#FFFFFF" class="st0" d="M379.188,314.563c-20.094,0-36.375,16.281-36.375,36.375c0,20.063,16.281,36.375,36.375,36.375
		c20.078,0,36.375-16.313,36.375-36.375C415.563,330.844,399.266,314.563,379.188,314.563z M379.188,367.188
		c-8.969,0-16.281-7.281-16.281-16.25s7.313-16.266,16.281-16.266c8.953,0,16.25,7.297,16.25,16.266
		S388.141,367.188,379.188,367.188z"/>
	<path fill="#FFFFFF" class="st0" d="M230.859,129.703c-0.125-2.797-3.016-5.016-6.563-5.016h-22.641c-3.531,0-6.438,2.219-6.563,5.016
		l-1.406,30.516h38.594L230.859,129.703z"/>
	<rect x="188.656" y="168.078" class="st0" width="48.656" height="11.297"/>
	<path fill="#FFFFFF" class="st0" d="M182.016,285.219h-5.328c-0.188,0-0.281,0.094-0.281,0.281v8.125c0,0.188,0.094,0.281,0.281,0.281h5.328
		c2.953,0,4.703-1.703,4.703-4.313C186.719,286.969,184.969,285.219,182.016,285.219z"/>
	<path fill="#FFFFFF" class="st0" d="M210.047,284.844c-2.672,0-4.391,1.328-5.078,3.547c-0.406,1.156-0.531,2.734-0.531,6.953
		s0.125,5.813,0.531,6.938c0.688,2.25,2.406,3.594,5.078,3.594c2.641,0,4.359-1.344,5.078-3.594
		c0.391-1.125,0.531-2.719,0.531-6.938s-0.141-5.797-0.531-6.953C214.406,286.172,212.688,284.844,210.047,284.844z"/>
	<path fill="#FFFFFF" class="st0" d="M422,337.031c1.406,4.375,2.203,9.047,2.203,13.906c0,2.375-0.234,4.672-0.594,6.938h75.266
		c7.25,0,13.125-5.875,13.125-13.141v-7.703H422z"/>
	<path fill="#FFFFFF" class="st0" d="M0,337.031v7.703c0,7.266,5.875,13.141,13.125,13.141h58.328c-0.359-2.266-0.609-4.563-0.609-6.938
		c0-4.859,0.797-9.531,2.234-13.906H0z"/>
	<path fill="#FFFFFF" class="st0" d="M158.688,337.031c1.438,4.375,2.219,9.047,2.219,13.906c0,2.375-0.234,4.672-0.563,6.938H334.75
		c-0.375-2.266-0.594-4.563-0.594-6.938c0-4.859,0.781-9.531,2.219-13.906H158.688z"/>
	<path fill="#FFFFFF" class="st0" d="M507.375,323.281c0-17.109-11.063-32.281-27.359-37.5L373.781,239.75l-53.844-33.125
		c-19.844-12.188-42.594-18.891-65.906-19.406l-64.5-2.125c-69.781,0-110.781-0.25-136.578,30.313
		c-31.266,37.063-48.313,56.719-48.313,80.969v36.031h70.25c7.078-15.609,22.766-26.5,41-26.5c18.203,0,33.922,10.891,40.984,26.5
		h181.313c7.094-15.609,22.781-26.5,41-26.5c18.203,0,33.906,10.891,40.984,26.5h87.203V323.281z M114.344,260.594H50.969
		c-2.031,0-3.875-1.188-4.75-3.031c-0.875-1.813-0.594-3.984,0.688-5.563c0,0,7.688-9.813,18.109-22.141l2.109-2.484
		c10.5-12.438,25.172-18.344,47.219-21.172V260.594z M128.234,260.594v-55.719c15.828-1.094,34.781-1.25,57.859-1.25h3.141
		l47.875,1.594v55.375H128.234z M182.438,299.969h-5.75c-0.188,0-0.281,0.094-0.281,0.25v10.813c0,0.281-0.188,0.469-0.469,0.469
		h-6.031c-0.281,0-0.5-0.188-0.5-0.469v-31.375c0-0.281,0.219-0.469,0.5-0.469h12.531c7.031,0,11.281,4.219,11.281,10.406
		C193.719,295.656,189.438,299.969,182.438,299.969z M221.844,304.188c-1.688,5.25-6.156,7.844-11.797,7.844
		c-5.672,0-10.141-2.594-11.797-7.844c-0.719-2.219-0.906-4.031-0.906-8.844c0-4.797,0.188-6.625,0.906-8.844
		c1.656-5.219,6.125-7.844,11.797-7.844c5.641,0,10.109,2.625,11.797,7.844c0.703,2.219,0.891,4.047,0.891,8.844
		C222.734,300.156,222.547,301.969,221.844,304.188z M250.094,311.031c0,0.281-0.188,0.469-0.469,0.469h-21.063
		c-0.297,0-0.5-0.188-0.5-0.469v-31.375c0-0.281,0.203-0.469,0.5-0.469h6.031c0.281,0,0.469,0.188,0.469,0.469v25.328
		c0,0.203,0.109,0.297,0.281,0.297h14.281c0.281,0,0.469,0.188,0.469,0.469V311.031z M261.25,311.031c0,0.281-0.188,0.469-0.5,0.469
		h-6.031c-0.281,0-0.469-0.188-0.469-0.469v-31.375c0-0.281,0.188-0.469,0.469-0.469h6.031c0.313,0,0.5,0.188,0.5,0.469V311.031z
		 M274.172,302.281c0.703,2.25,2.328,3.594,4.859,3.594c2.719,0,4.219-1.594,5.125-3.688c0.141-0.281,0.391-0.375,0.672-0.219
		l5.188,2.313c0.281,0.094,0.359,0.344,0.234,0.594c-1.813,4.5-5.813,7.156-11.281,7.156c-5.656,0-9.781-2.656-11.5-7.938
		c-0.719-2.094-0.906-3.75-0.906-8.75s0.188-6.656,0.906-8.75c1.719-5.281,5.844-7.938,11.5-7.938c5.469,0,9.469,2.656,11.281,7.188
		c0.125,0.219,0.047,0.469-0.234,0.563l-5.188,2.313c-0.281,0.156-0.531,0.063-0.672-0.219c-0.906-2.094-2.406-3.656-5.125-3.656
		c-2.531,0-4.156,1.328-4.859,3.547c-0.375,1.203-0.516,2.344-0.516,6.953C273.656,299.969,273.797,301.094,274.172,302.281z
		 M316.469,284.75c0,0.281-0.188,0.469-0.484,0.469h-13.922c-0.188,0-0.297,0.094-0.297,0.281v6.406
		c0,0.203,0.109,0.297,0.297,0.297h11.594c0.281,0,0.469,0.203,0.469,0.484v5.031c0,0.281-0.188,0.484-0.469,0.484h-11.594
		c-0.188,0-0.297,0.094-0.297,0.266v6.719c0,0.188,0.109,0.281,0.297,0.281h13.922c0.297,0,0.484,0.188,0.484,0.5v5.063
		c0,0.281-0.188,0.469-0.484,0.469H295.25c-0.281,0-0.469-0.188-0.469-0.469v-31.375c0-0.281,0.188-0.469,0.469-0.469h20.734
		c0.297,0,0.484,0.188,0.484,0.469V284.75z M357.156,256.813c-0.656,2.234-2.703,3.781-5.047,3.781H251v-54.938l2.438,0.094
		c20.188,0.438,39.766,6.219,56.813,16.688l44.672,28.469C356.906,252.156,357.781,254.563,357.156,256.813z M487.281,321.672
		c0,1.453-1.172,2.609-2.625,2.609h-27.125c-0.938,0-1.813-0.484-2.281-1.313l-7.406-12.813c-0.953-1.609-0.953-3.625,0-5.25
		c0.938-1.625,2.656-2.625,4.531-2.625h24.047c0.828,0,1.578,0.375,2.078,1.031l8.25,10.703c0.344,0.453,0.531,1.016,0.531,1.609
		V321.672z"/>
</g>
</svg>