<?xml version="1.0" encoding="iso-8859-1"?>
<svg fill="#FFFFFF" height="800px" width="800px" version="1.1" id="Layer_1" xmlns="http://www.w3.org/2000/svg"
     xmlns:xlink="http://www.w3.org/1999/xlink"
     viewBox="0 0 512 512" xml:space="preserve">
<g>
   <g>
      <g>
         <path d="M423.701,423.605h-1.243v-24.203c0-15.14-12.317-27.456-27.456-27.456h-12.723V239.928
            c0-69.63-56.648-126.278-126.278-126.278s-126.278,56.648-126.278,126.278v132.018h-12.723c-15.14,0-27.456,12.317-27.456,27.456
            v24.203h-1.243c-15.14,0-27.456,12.317-27.456,27.456v35.683c0,6.34,5.139,11.48,11.48,11.48h367.354
            c6.34,0,11.48-5.14,11.48-11.48v-35.683C451.157,435.922,438.84,423.605,423.701,423.605z M152.682,239.928
            c0-56.97,46.349-103.318,103.318-103.318c56.97,0,103.318,46.349,103.318,103.318v132.018H267.48V308.28l36.549,12.184
            c1.186,0.395,2.411,0.589,3.629,0.589c2.38,0,4.734-0.74,6.713-2.167c2.993-2.157,4.768-5.623,4.768-9.312v-86.099
            c0-3.69-1.774-7.155-4.768-9.312c-2.993-2.158-6.843-2.746-10.342-1.578L256,228.593l-48.029-16.01
            c-3.499-1.166-7.348-0.58-10.342,1.578c-2.993,2.157-4.768,5.623-4.768,9.312v86.099c0,3.69,1.774,7.155,4.768,9.312
            c1.98,1.427,4.334,2.167,6.713,2.167c1.218,0,2.444-0.194,3.629-0.589l36.549-12.184v63.666h-91.839V239.928z M267.48,284.078
            v-4.545v-30.566l28.7-9.566v54.244L267.48,284.078z M244.52,248.967v30.566v4.545l-28.7,9.566V239.4L244.52,248.967z
             M112.502,399.402c0-2.48,2.017-4.497,4.497-4.497h278.003c2.48,0,4.497,2.017,4.497,4.497v24.203H112.502V399.402z
             M428.198,475.265h-0.001H83.803v-24.203c0-2.48,2.017-4.497,4.497-4.497h335.403c2.48,0,4.497,2.017,4.497,4.497V475.265z"/>
          <path d="M106.762,239.354c0-6.34-5.14-11.48-11.48-11.48H11.48c-6.34,0-11.48,5.14-11.48,11.48c0,6.34,5.14,11.48,11.48,11.48
            h83.803C101.623,250.834,106.762,245.695,106.762,239.354z">
            <animate
                    attributeName="fill"
                    values="transparent; red"
                    dur="1s"
                    repeatCount="indefinite"
            />
         </path>
          <path d="M500.52,227.874h-83.803c-6.34,0-11.48,5.14-11.48,11.48c0,6.34,5.14,11.48,11.48,11.48h83.803
            c6.34,0,11.48-5.14,11.48-11.48C512,233.014,506.861,227.874,500.52,227.874z">
            <animate
                    attributeName="fill"
                    values="transparent; red"
                    dur="1s"
                    repeatCount="indefinite"
            />
         </path>
          <path d="M256,59.695c6.34,0,11.48-5.14,11.48-11.48v-22.96c0-6.34-5.14-11.48-11.48-11.48c-6.34,0-11.48,5.14-11.48,11.48v22.96
            C244.52,54.556,249.66,59.695,256,59.695z">
            <animate
                    attributeName="fill"
                    values="transparent; red"
                    dur="1s"
                    repeatCount="indefinite"
            />
         </path>
          <path d="M64.845,142.246l19.883,11.48c1.808,1.043,3.781,1.539,5.73,1.539c3.967,0,7.826-2.058,9.952-5.741
            c3.171-5.491,1.289-12.512-4.202-15.681l-19.883-11.48c-5.49-3.17-12.512-1.289-15.681,4.202
            C57.473,132.056,59.355,139.077,64.845,142.246z">
            <animate
                    attributeName="fill"
                    values="transparent; red"
                    dur="1s"
                    repeatCount="indefinite"
            />
         </path>
          <path d="M330.619,110.111c1.808,1.044,3.781,1.539,5.73,1.539c3.967,0,7.826-2.058,9.952-5.741l41.901-72.575
            c3.171-5.491,1.289-12.512-4.202-15.681c-5.49-3.17-12.511-1.289-15.681,4.202L326.417,94.43
            C323.247,99.919,325.128,106.94,330.619,110.111z">
            <animate
                    attributeName="fill"
                    values="transparent; red"
                    dur="1s"
                    repeatCount="indefinite"
            />
         </path>
          <path d="M165.7,105.908c2.126,3.683,5.984,5.741,9.952,5.741c1.947,0,3.922-0.496,5.73-1.539
            c5.491-3.17,7.372-10.191,4.202-15.681l-41.901-72.575c-3.171-5.492-10.191-7.373-15.681-4.202
            c-5.491,3.17-7.372,10.191-4.202,15.681L165.7,105.908z">
            <animate
                    attributeName="fill"
                    values="transparent; red"
                    dur="1s"
                    repeatCount="indefinite"
            />
         </path>
          <path d="M421.542,155.266c1.947,0,3.922-0.496,5.73-1.539l19.883-11.48c5.491-3.17,7.372-10.191,4.202-15.681
            c-3.17-5.492-10.191-7.372-15.681-4.202l-19.883,11.48c-5.491,3.17-7.372,10.191-4.202,15.681
            C413.716,153.207,417.575,155.266,421.542,155.266z">
             <animate
                     attributeName="fill"
                     values="transparent; red"
                     dur="1s"
                     repeatCount="indefinite"
             />
         </path>
      </g>
   </g>
</g>
</svg>